<svg data-v-423bf9ae="" xmlns="http://www.w3.org/2000/svg" viewBox="0 0 503 90" class="iconLeft"><!----><!----><!----><g data-v-423bf9ae="" id="8155c45f-362d-47aa-99ad-d52219a480eb" fill="#FFFFFF" transform="matrix(4.750594139893686,0,0,4.750594139893686,106.86461662987517,11.152018318127304)"><path d="M7.03 8.76C6.47 8.85 5.28 8.96 4.63 8.96C2.98 8.96 2.65 8.30 2.65 5.74C2.65 3.04 3.11 2.52 4.58 2.52C5.21 2.52 6.38 2.63 7.03 2.73L7.08 1.19C6.50 1.05 5.29 0.81 4.30 0.81C1.47 0.81 0.66 2.13 0.66 5.74C0.66 9.07 1.36 10.67 4.30 10.67C5.17 10.67 6.43 10.49 7.07 10.35ZM13.83 5.68C13.83 4.05 13.10 3.33 11.28 3.33C9.94 3.33 8.44 3.74 8.44 3.74L8.50 5.04C8.50 5.04 10.21 4.93 11.13 4.93C11.69 4.93 11.96 5.08 11.96 5.68L11.96 6.12L10.46 6.23C8.92 6.34 8.01 6.79 8.01 8.37C8.01 9.86 8.71 10.67 10.18 10.67C11.23 10.67 12.24 10.18 12.24 10.18C12.82 10.57 13.30 10.67 14.24 10.67L14.29 9.25C13.92 9.18 13.86 9.02 13.83 8.60ZM11.96 7.42L11.96 8.92C11.96 8.92 11.19 9.14 10.58 9.14C10.08 9.14 9.90 8.81 9.90 8.32C9.90 7.81 10.19 7.57 10.68 7.53ZM17.50 10.50L17.50 5.26C17.50 5.26 18.13 5.01 18.75 5.01C19.61 5.01 19.73 5.64 19.73 6.90L19.73 10.50L21.60 10.50L21.60 6.87C21.60 6.33 21.55 5.28 21.55 5.28C21.55 5.28 22.29 5.01 22.85 5.01C23.69 5.01 23.83 5.70 23.83 6.76L23.83 10.50L25.70 10.50L25.70 6.71C25.70 4.45 25.14 3.33 23.24 3.33C22.18 3.33 20.89 3.99 20.89 3.99C20.47 3.54 19.92 3.33 19.14 3.33C18.45 3.33 17.49 3.89 17.49 3.89L17.49 3.50L15.62 3.50L15.62 10.50ZM27.37 13.44L29.25 13.44L29.25 10.56C29.25 10.56 29.89 10.67 30.41 10.67C32.55 10.67 33.59 9.93 33.59 6.94C33.59 4.34 32.68 3.33 30.83 3.33C30.14 3.33 29.23 3.88 29.23 3.88L29.23 3.50L27.37 3.50ZM30.46 5.01C31.21 5.01 31.68 5.53 31.68 6.94C31.68 8.43 31.39 9.04 30.27 9.04C29.88 9.04 29.25 8.96 29.25 8.96L29.25 5.29C29.25 5.29 29.89 5.01 30.46 5.01ZM39.12 3.50L39.12 8.74C39.12 8.74 38.47 8.99 37.77 8.99C36.85 8.99 36.79 8.44 36.79 7.20L36.79 3.50L34.92 3.50L34.92 7.17C34.92 9.53 35.34 10.67 37.38 10.67C38.12 10.67 39.13 10.11 39.13 10.11L39.13 10.50L40.99 10.50L40.99 3.50ZM47.78 3.70C47.78 3.70 46.07 3.35 45.07 3.35C43.60 3.35 42.36 4.00 42.36 5.63C42.36 7.17 43.16 7.53 44.67 7.78C45.96 7.99 46.12 8.13 46.12 8.44C46.12 8.81 45.88 8.99 44.98 8.99C44.27 8.99 42.53 8.76 42.53 8.76L42.48 10.33C42.48 10.33 44.13 10.67 45.16 10.67C46.91 10.67 47.98 10.04 47.98 8.40C47.98 6.99 47.40 6.51 45.78 6.22C44.49 5.98 44.23 5.91 44.23 5.59C44.23 5.21 44.39 5.03 45.21 5.03C46.02 5.03 47.75 5.25 47.75 5.25ZM49.25 7.63L53.40 7.63L53.40 5.92L49.25 5.92ZM55.22 10.50L57.15 10.50L57.15 3.14L57.36 3.14L59.22 10.08L61.15 10.08L63.01 3.14L63.22 3.14L63.22 10.50L65.16 10.50L65.16 0.98L61.87 0.98L60.19 7.92L58.51 0.98L55.22 0.98ZM72.42 5.68C72.42 4.05 71.69 3.33 69.87 3.33C68.53 3.33 67.03 3.74 67.03 3.74L67.09 5.04C67.09 5.04 68.80 4.93 69.72 4.93C70.28 4.93 70.55 5.08 70.55 5.68L70.55 6.12L69.05 6.23C67.51 6.34 66.60 6.79 66.60 8.37C66.60 9.86 67.30 10.67 68.77 10.67C69.82 10.67 70.83 10.18 70.83 10.18C71.41 10.57 71.89 10.67 72.83 10.67L72.88 9.25C72.51 9.18 72.45 9.02 72.42 8.60ZM70.55 7.42L70.55 8.92C70.55 8.92 69.78 9.14 69.17 9.14C68.67 9.14 68.49 8.81 68.49 8.32C68.49 7.81 68.78 7.57 69.27 7.53ZM74.21 10.50L76.09 10.50L76.09 5.81C76.09 5.81 77.08 5.46 78.32 5.22L78.32 3.33C77.25 3.54 76.08 4.24 76.08 4.24L76.08 3.50L74.21 3.50ZM83.30 5.10L83.30 3.50L81.58 3.50L81.58 1.55L79.70 1.55L79.70 3.50L78.88 3.50L78.88 5.10L79.70 5.10L79.70 8.01C79.70 10.02 80.19 10.67 81.89 10.67C82.38 10.67 83.31 10.46 83.31 10.46L83.23 8.96C83.23 8.96 82.56 8.99 82.17 8.99C81.58 8.99 81.58 8.67 81.58 7.97L81.58 5.10Z"></path></g><!----><g data-v-423bf9ae="" id="2cd5b4e8-caec-45f5-8577-653ef3028118" transform="matrix(2.8125,0,0,2.8125,0,0)" stroke="none" fill="#88DF95"><path d="M9.571 20.464l8.064 4.47 8.065-4.47v-8.939l-8.065-4.469-8.064 4.469z"></path><path d="M32 0H0v32h32l-5.054-5.172H5.054V5.172h21.892z"></path></g><!----></svg>